<?xml version="1.0" standalone="no"?>
<!DOCTYPE svg PUBLIC "-//W3C//DTD SVG 20010904//EN"
 "http://www.w3.org/TR/2001/REC-SVG-20010904/DTD/svg10.dtd">
<svg version="1.0" xmlns="http://www.w3.org/2000/svg"
 width="500.000000pt" height="500.000000pt" viewBox="0 0 500.000000 500.000000"
 preserveAspectRatio="xMidYMid meet">
<metadata>
Created by potrace 1.11, written by Peter Selinger 2001-2013
</metadata>
<g transform="translate(0.000000,500.000000) scale(0.100000,-0.100000)"
fill="#000000" stroke="none">
<path d="M3098 4905 c-2 -2 -23 -6 -48 -10 -25 -3 -54 -8 -65 -10 -55 -9 -100
-17 -119 -21 -11 -3 -32 -7 -46 -10 -14 -3 -50 -12 -80 -22 -30 -9 -57 -17
-60 -17 -33 -9 -199 -92 -220 -110 -8 -7 -25 -16 -37 -19 -13 -4 -23 -11 -23
-15 0 -5 -13 -14 -30 -21 -16 -7 -30 -16 -30 -21 0 -5 -5 -9 -12 -9 -29 0
-162 -115 -224 -195 -73 -93 -211 -404 -238 -537 -3 -16 -8 -38 -11 -50 -10
-51 -17 -151 -20 -288 -1 -80 -3 -147 -4 -149 0 -2 -11 4 -22 15 -27 24 -58
24 -84 1 -18 -16 -20 -30 -18 -135 5 -405 4 -432 -16 -484 -5 -13 -9 -26 -10
-30 0 -5 -1 -9 -2 -10 -1 -6 -7 -34 -13 -63 -3 -16 -8 -41 -11 -54 -14 -71
-22 -172 -24 -301 -1 -73 -2 -77 -38 -113 -20 -21 -42 -48 -48 -60 -12 -24
-12 -197 0 -217 4 -6 9 -35 10 -64 2 -28 4 -56 5 -61 1 -6 1 -14 0 -20 -1 -5
-3 -14 -4 -20 -14 -84 -19 -97 -54 -123 -48 -35 -102 -90 -102 -102 0 -6 -3
-10 -8 -10 -9 0 -45 -65 -49 -88 -1 -10 -5 -44 -7 -77 -8 -103 -17 -139 -45
-180 -27 -40 -77 -65 -193 -95 -41 -11 -46 -15 -42 -36 2 -13 0 -24 -5 -24 -5
0 -49 -30 -97 -66 -93 -70 -173 -116 -224 -129 -19 -4 -81 -39 -91 -51 -6 -8
-17 -14 -24 -14 -8 0 -15 -3 -17 -7 -7 -18 -89 -65 -102 -60 -8 3 -16 3 -19 0
-3 -3 -50 -7 -104 -9 -146 -5 -195 -12 -286 -42 l-82 -27 -3 -323 -2 -322
2295 0 c1262 0 2295 3 2295 8 0 4 -8 12 -19 17 -71 38 -101 56 -101 63 1 6
151 104 255 165 11 7 41 26 67 43 l48 31 -38 44 c-20 24 -53 60 -72 80 -19 20
-74 79 -121 130 -99 108 -194 209 -209 224 -25 25 -113 116 -200 207 -52 55
-126 133 -165 172 -38 40 -96 101 -127 137 -31 35 -86 96 -122 134 -72 76 -73
83 -41 165 7 19 17 49 21 65 8 33 8 34 17 55 3 8 13 38 21 65 28 87 54 107
101 75 37 -24 126 24 193 105 25 30 82 118 93 145 8 16 17 30 21 30 5 0 8 6 8
13 0 22 119 279 145 313 35 46 69 184 62 255 -6 68 -30 122 -60 137 -28 15
-73 22 -81 14 -4 -3 -13 -7 -22 -8 -18 -3 -15 17 21 141 15 50 28 97 30 105 2
8 8 27 14 43 6 15 8 27 5 27 -4 0 -2 6 3 13 9 11 58 174 67 222 2 11 7 40 12
65 9 51 11 59 13 63 7 8 13 95 13 177 0 183 -12 233 -83 355 -68 119 -113 190
-121 193 -5 2 -8 10 -8 18 0 8 -4 14 -8 14 -4 0 -15 13 -25 29 -42 72 -233
245 -373 339 -93 62 -286 158 -377 188 -69 23 -102 27 -214 29 -72 2 -133 2
-135 0z"/>
</g>
</svg>
