<?xml version="1.0" encoding="UTF-8"?>
<svg version="1.1" viewBox="0 0 2048 969" width="300" height="142" xmlns="http://www.w3.org/2000/svg">
<path transform="translate(888,46)" d="m0 0h525l1 1v26l-4 8-13 18-10 13-10 14-14 18-10 14-10 13-10 14-8 10-10 14-13 17-12 16-13 18-8 10-13 18-14 18-10 14-10 13-12 16-14 19-10 13-13 18-13 17-9 12-14 19-13 17-10 14-8 10-13 18-13 17-12 16-13 18-11 14-10 14-14 18-10 14-10 13-8 11-27 36-14 19-10 13-10 14-13 17-9 12-14 19-8 10-7 9h529l3-1 13-33 16-40 19-47 20-49 17-42 16-40 15-37 14-35 20-49 20-50 14-34 20-50 22-54 12-30 15-37 19-47 16-40 11-27 5-2h23l3 3 5 11 19 49 17 43 15 38 20 51 15 38 13 33 17 43 11 28 17 43 22 56 15 38 12 30 19 49 12 30 11 28 19 48 20 51 15 38 6 15v2h-22l-3-4-80-200-16-41-3-6h-389l-11 26-14 36-12 29-17 42-32 80-14 33-4 5-551 1-8 2-5 4-16 9-17 10-22 12-28 15-37 18-44 19-31 12-34 12-43 13-41 10-31 6-48 6-12 1h-56l-23-3-21-5-25-10-15-9-16-13-8-8-13-17-9-14-8-15-6-17-3-18-1-12v-48l2-34 4-36-1-5-9-6-3-4-5-35-10-80v-20l4-5 16-8 4-5 7-4h6l5 5 3 12 6 50 11 89v14l-13 7-10 2h-4l-4 54-1 22v24l2 25 4 19 7 17 9 15 11 14 12 13 13 11 18 11 17 7 18 5 22 3 12 1h28l33-3 26-4 28-6 44-12 40-13 34-13 29-12 20-9 25-12 26-13 22-12 25-14 24-14 20-12 23-14 8-7 24-32 10-14 10-13 28-38 10-13 14-19 24-32 14-19 10-13 28-38 13-17 12-16 14-19 16-21 8-11 14-19 13-17 13-18 14-18 8-11 14-19 16-21 10-14 10-13 14-19 12-16 14-19 16-21 10-14 10-13 14-19 16-21 14-19 12-16 14-19 10-13 13-18 14-18 2-4-3 1h-501l-2-3v-16zm837 22-16 40-23 57-104 260-33 82-12 29-1 2 6 1h368l-1-5-8-20-20-52-17-44-16-41-39-101-19-49-22-57-16-41-16-42-8-19z" fill="#FEFEFE"/>
<path transform="translate(479)" d="m0 0h66l36 7 31 9 25 10 16 8 17 9 21 14 14 10 14 12 11 9 22 22 7 8 13 16 12 16 12 18 12 20 14 27 11 24 13 35 8 28 6 26 5 27 4 37 2 33v22l-1 25-5 44-8 42-9 33-10 29-9 22-11 24-6 10-1-2 8-19 9-25 10-35 7-31 5-35 3-35v-65l-3-34-4-27-5-26-7-28-9-29-10-26-13-29-13-25-14-23-14-20-10-13-12-14-11-12-16-16-11-9-12-10-17-12-25-15-27-13-25-9-23-6-29-5-10-1h-38l-25 3-29 6-30 10-24 11-18 10-15 10-17 12-13 11-12 11-11 10-1 2h-2l-2 4-7 7-9 11-11 13-13 19-11 17-12 21-8 15-13 29-11 29-10 33-7 29-6 33-3 28-2 27v48l3 39 4 29 7 33 7 26 12 36 10 24-1 2-10-19-11-24-13-35-9-31-8-37-5-36-2-22-1-21v-41l2-29 7-45 7-31 8-27 9-26 11-26 10-21 13-23 13-21 13-18 10-13 11-13 14-15 17-17 11-9 12-10 20-14 18-11 27-14 28-11 24-7z" fill="#FEFEFE"/>
<path transform="translate(756,531)" d="m0 0h8l6 4 7 6 14 7 4 5 1 8-6 58-7 64-3 7-6 5-7 4-3 9-1 1h-10l-15-6-3-5v-10l10-99 6-51 3-6z" fill="#FEFEFE"/>
<path transform="translate(528,560)" d="m0 0 3 1 10 23 13 33 5 12v2l8-7 22-22 4 2 10 12 11 15 3 4 5-2 8-7 9-4h46l3 1 1 6-3 2h-35l-12 1-8 5-8 9-2 3-5-1-9-10-10-14-6-8-5 3-4 2-2 4-20 20-1 2-4-1-4-9-8-20-7-19-5-11-2 2-12 36-13 41-3 9-5-5-9-20-12-32-5-9v-2l-4 4-11 16-14 21-7-6-12-18-3-3v-2l-9 3-16 11-4 1h-55l-1-1v-6l3-2h46l8-1 20-14 4-3h6l7 8 7 10 4 7 4-5 8-12 12-16 8-9 5 5 13 32 8 19 2 1 13-41 15-45z" fill="#E3D8F6"/>
<path transform="translate(9,28)" d="m0 0h24l13 3 8 5 7 8 4 9 1 4v17l-4 12-6 9-9 6-13 3-8 1h-14l-5-2-1-1v-66l2-7zm5 4-2 4v57l1 6 3 1h17l12-3 6-4 4-5 4-10 1-5v-17l-4-10-7-8-10-5-4-1z" fill="#FEFEFE"/>
<path transform="translate(124,29)" d="m0 0h4l1 46-1 15-3 8-7 6-6 3h-11l-8-5-5-6-2-6v-10h3l3 8 5 10 6 4h8l6-4 4-8 2-59z" fill="#FEFEFE"/>
<path transform="translate(216,676)" d="m0 0" fill="#FEFEFE"/>
</svg>
