<?xml version="1.0" encoding="utf-8"?>
<!-- Generator: Adobe Illustrator 19.0.0, SVG Export Plug-In . SVG Version: 6.00 Build 0)  -->
<svg version="1.1" id="Layer_1" xmlns="http://www.w3.org/2000/svg" xmlns:xlink="http://www.w3.org/1999/xlink" x="0px" y="0px"
	 width="56.3px" height="57px" viewBox="-451 252 56.3 57" style="enable-background:new -451 252 56.3 57;" xml:space="preserve">
<style type="text/css">
	.st0{display:none;}
	.st1{display:inline;fill:#CC3333;}
	.st2{display:inline;}
	.st3{fill:#6E6E6E;}
</style>
<g id="Layer_2_1_" class="st0">
	<rect x="-1121" y="756" class="st1" width="519.8" height="57"/>
</g>
<g id="Layer_1_1_">
	<g id="Layer_2" class="st0">
		<rect id="XMLID_53_" x="-902" y="504" class="st2" width="739.4" height="308.1"/>
	</g>
	<g>
		<polygon class="st3" points="-410.3,272 -410.1,293.6 -431.8,293.8 -432.8,294.8 -409.1,294.6 -409.2,270.9 		"/>
		<path class="st3" d="M-409,266l-1.2,1.2l-26.4,0.2l0.2,26.4l0,0l0,0l-0.7,0.7c-4.7,4.8-9.3,9.7-13.9,14.5c4.8-4.6,9.6-9.3,14.3-14
			l0.2-0.3l0,0l0,0l1-1l3.3-3.4l9.6-9.6l8-8.1l4.3-4.4l1-1l0,0l0,0l0.8-0.8c4.6-4.7,9.2-9.5,13.8-14.4
			C-399.5,256.6-404.3,261.3-409,266z"/>
	</g>
</g>
</svg>
